<svg xmlns="http://www.w3.org/2000/svg" xmlns:xlink="http://www.w3.org/1999/xlink" id="Layer_1" x="0px" y="0px" viewBox="0 0 1000 1000" xml:space="preserve">
<g>
	<g>
		<g>
			<g>
				<path d="M15.2,19v514.4h514.4V19H15.2z M499.5,503.1H45.3V49.2h454L499.5,503.1L499.5,503.1z"></path>
			</g>
		</g>
		<g>
			<g>
				<polygon points="238.3,239.3 213.8,306.6 262.1,306.6     "></polygon>
			</g>
		</g>
		<g>
			<g>
				<path d="M75.5,79.2V473h393.8V79.2H75.5z M284,372.5l-15.9-42.6h-59.7l-15.6,42.6h-34.2l65.3-171.2h29.3l65.1,171.2L284,372.5      L284,372.5z M366.2,372.5h-32.3V246.1h32.3V372.5z M366.2,228.6h-32.3v-32.1h32.3V228.6z"></path>
			</g>
		</g>
	</g>
	<g>
		<g>
			<g>
				<path d="M470.4,466.6V981h514.4V466.6H470.4z M954.7,950.7H500.4V496.8h454L954.7,950.7L954.7,950.7z"></path>
			</g>
		</g>
		<g>
			<g>
				<path d="M682.3,678.3h-37.1v55.5h38.6c11.7,0,21.4-11,21.4-27.7C705.2,691.5,696.5,678.3,682.3,678.3z"></path>
			</g>
		</g>
		<g>
			<g>
				<path d="M530.7,526.8v393.8h393.8V526.8H530.7z M685.8,762.7h-40.5v57.4h-33.2V649h72.5c33.2,0,54.5,30.5,54.5,56.9      C739,737.1,715.2,762.7,685.8,762.7z M806.7,822.7c-29.1,0-49.9-13.3-57.1-19.5l11.9-20.3c7.7,5.4,25.4,16.7,44.4,16.7      c12.2,0,20.8-5.2,20.8-14c0-11-17.9-14.3-27.7-17.2c-8.2-2.2-45.2-7.5-45.2-35.1c0-26.7,23.3-41.8,49.7-41.8      c27.7,0,42.5,11.2,49.5,17.4l-13,19.5c-6.4-4.7-20.8-14-36.6-14c-11.7,0-19.3,5.1-19.3,14.2c0,11.5,20.2,14.8,24.8,15.9      c8.8,2.2,48.9,8.4,48.9,38.1C857.8,817.7,822.4,822.7,806.7,822.7z"></path>
			</g>
		</g>
	</g>
</g>
</svg>